Coordinates
version=1
nRows=11
nColumns=36
inDegrees=yes

Units are S.I. units (second, meters, Newtons, ...)
If the header above contains a line with 'inDegrees', this indicates whether rotational values are in degrees (yes) or radians (no).

endheader
time	pelvis_tilt	pelvis_list	pelvis_rotation	pelvis_tx	pelvis_ty	pelvis_tz	hip_flexion_r	hip_adduction_r	hip_rotation_r	knee_angle_r	knee_angle_r_beta	ankle_angle_r	subtalar_angle_r	mtp_angle_r	hip_flexion_l	hip_adduction_l	hip_rotation_l	knee_angle_l	knee_angle_l_beta	ankle_angle_l	subtalar_angle_l	mtp_angle_l	lumbar_extension	lumbar_bending	lumbar_rotation	arm_flex_r	arm_add_r	arm_rot_r	elbow_flex_r	pro_sup_r	arm_flex_l	arm_add_l	arm_rot_l	elbow_flex_l	pro_sup_l
      0.00000000	     10.92346794	      0.28537540	      5.60037923	     -0.50376438	      0.57327208	     -0.66765743	     76.33871549	    -20.40697987	      7.65946818	    106.57425600	      1.86007167	     26.42974868	      2.75999376	     -5.78941415	     77.59409908	     -8.08435505	      6.85562223	    104.75984668	      1.82840425	     23.08556245	      0.54154475	     -5.78941415	    -21.21194956	     -1.09212233	     -2.87130883	      1.17132772	     -8.33827105	     -9.11208505	    112.64891539	     98.09373875	      1.78200148	     -4.72792778	    -11.47315246	    119.12371993	     94.51063773
      0.01000000	     10.87079015	      0.26288513	      5.61845121	     -0.50383264	      0.57334164	     -0.66772847	     76.36129722	    -20.40381767	      7.64156192	    106.55684689	      1.85976782	     26.46270500	      2.81170975	     -6.17841883	     77.64616718	     -8.07499016	      6.84671883	    104.73411271	      1.82795511	     23.08636705	      0.55813536	     -6.17841883	    -21.31336134	     -1.02845306	     -2.89785655	      1.23830533	     -8.37578873	     -9.13139976	    112.62024318	     98.93335648	      1.86477304	     -4.69901695	    -11.64224108	    118.89837736	     96.93855535
      0.02000000	     10.88189033	      0.26176292	      5.61270345	     -0.50395517	      0.57354569	     -0.66773876	     76.32464082	    -20.41951333	      7.58724455	    106.53146836	      1.85932488	     26.60680843	      2.80564256	     -6.35020448	     77.60606841	     -8.08674718	      6.82054349	    104.69913603	      1.82734465	     23.14992423	      0.46164876	     -6.35020448	    -21.55905582	     -1.01591014	     -2.89952282	      1.33190020	     -8.37972308	     -9.06878266	    112.87723732	     96.86793292	      1.96887885	     -4.71486312	    -11.58232431	    119.18276569	     95.15038811
      0.03000000	     10.84387700	      0.22239940	      5.63123715	     -0.50407658	      0.57366165	     -0.66781026	     76.32094532	    -20.39599905	      7.57186789	    106.49429948	      1.85867616	     26.63039154	      2.92669630	     -6.58608412	     77.63804929	     -8.04575783	      6.88026923	    104.66894057	      1.82681764	     23.16052947	      0.54890073	     -6.58608412	    -21.76593038	     -0.93338497	     -2.97596865	      1.48369689	     -8.44011562	     -9.05650333	    112.79702058	     98.38351155	      2.05093158	     -4.77470967	    -11.67838790	    119.04772159	     96.86439541
      0.04000000	     10.78837403	      0.20748334	      5.61536114	     -0.50421220	      0.57374034	     -0.66778526	     76.35639160	    -20.34357184	      7.58391600	    106.46525129	      1.85816917	     26.85117878	      3.05727042	     -6.70549358	     77.67025213	     -8.04249706	      6.90216738	    104.62856222	      1.82611290	     23.29198511	      0.58862727	     -6.70549358	    -22.01070292	     -0.90936381	     -2.97385003	      1.59361555	     -8.50123334	     -8.98309549	    113.05663016	     96.43428001	      2.18726793	     -4.82299903	    -11.59010930	    119.31866933	     95.07675473
      0.05000000	     10.68104426	      0.18185412	      5.60807628	     -0.50432664	      0.57374049	     -0.66775864	     76.45829753	    -20.31757902	      7.57793881	    106.44780916	      1.85786475	     27.03281596	      3.30612075	     -6.83156342	     77.76354828	     -8.03601771	      6.92584546	    104.58566989	      1.82536429	     23.44144787	      0.75238576	     -6.83156342	    -22.23707251	     -0.87732646	     -2.97695524	      1.72590640	     -8.60956995	     -8.86215918	    113.33583128	     94.39137857	      2.34655473	     -4.85836641	    -11.48346317	    119.60764404	     93.22739992
      0.06000000	     10.49455290	      0.14243926	      5.57013609	     -0.50442264	      0.57363685	     -0.66769328	     76.64775819	    -20.23511893	      7.54470715	    106.39291553	      1.85690668	     26.91045951	      2.92575825	     -6.86764264	     77.95799574	     -8.04941878	      6.94843138	    104.53845859	      1.82454030	     23.29358626	      0.45859519	     -6.86764264	    -22.41102063	     -0.84165612	     -2.95681854	      1.89497062	     -8.71365535	     -8.83538335	    113.57468558	     93.68490087	      2.51783792	     -4.96390971	    -11.39719250	    119.71208005	     92.55732743
      0.07000000	     10.32784012	      0.18419160	      5.56517472	     -0.50444956	      0.57362799	     -0.66777320	     76.85649745	    -20.28029988	      7.58797813	    106.38786796	      1.85681858	     26.91949022	      3.00451187	     -6.98224861	     78.09302874	     -8.03392760	      6.85693339	    104.49569897	      1.82379400	     23.27594995	      0.50152196	     -6.98224861	    -22.61451686	     -0.86736060	     -2.90486219	      2.02510921	     -8.80016146	     -9.05171419	    113.22436557	     98.64484768	      2.84668363	     -4.90623159	    -11.47019519	    119.11578350	     97.28663527
      0.08000000	     10.11178521	      0.30939650	      5.47644402	     -0.50448821	      0.57365563	     -0.66756333	     77.14421021	    -20.20238605	      7.74974791	    106.35285710	      1.85620753	     27.02717609	      2.61598946	     -7.08670357	     78.21084725	     -8.08924210	      6.62972265	    104.40467283	      1.82220530	     23.28257149	      0.18046949	     -7.08670357	    -22.84309082	     -1.01622904	     -2.88745268	      2.25552789	     -8.79537533	     -8.91633164	    113.63867759	     94.63792184	      3.12269580	     -5.06645581	    -11.14671286	    119.47984139	     93.63908694
      0.09000000	      9.78112035	      0.40563751	      5.48671267	     -0.50447137	      0.57348097	     -0.66762930	     77.56220074	    -20.26782509	      7.92599183	    106.34526970	      1.85607510	     27.02832532	      3.12737974	     -7.16356511	     78.49012914	     -8.02175634	      6.48534021	    104.32554859	      1.82082432	     23.32904425	      0.51717462	     -7.16356511	    -22.94170034	     -1.08034082	     -2.97561841	      2.51547839	     -8.91073388	     -8.92364468	    113.36617703	     98.58554308	      3.45503074	     -5.20342533	    -11.03685614	    119.04941706	     96.82737711
      0.10000000	      9.45826567	      0.54430530	      5.50470702	     -0.50442953	      0.57340323	     -0.66777369	     77.96924544	    -20.35998035	      8.13376102	    106.31748256	      1.85559012	     27.12585964	      3.33092681	     -7.21988916	     78.72070109	     -7.91135657	      6.27420068	    104.22441177	      1.81905915	     23.35026229	      0.44348233	     -7.21988916	    -23.13826858	     -1.19283971	     -3.06751953	      2.78641486	     -9.02974401	     -8.80487348	    113.49672369	     97.92399270	      3.84598191	     -5.36356746	    -10.69831940	    119.06450847	     96.31490136
